# xmcd
#
# Track frame offsets:
#	182
#	21005
#	43040
#	63930
#	83057
#	104927
#	124027
#	139155
#	155025
#	174625
#	192602
#	210422
#	227812
#	248595
#	265395
#	283775
#	304057
#	327547
#
# Disc length: 4716 seconds
#
# Revision: 0
# Processed by: cddbd v1.5.1PL0 Copyright (c) Steve Scherf et al.
# Submitted via: dBpowerAMP V4.0
#
DISCID=0f126a12
DTITLE=Various Artist - Hardcore Forever
DYEAR=1996
DGENRE=Gabber
TTITLE0=Ruffneck vs Mickey B - Doodlesex
TTITLE1=Dark Raver - Pussy Pumpin'
TTITLE2=Sand-E - Hard Bond (Original Mix)
TTITLE3=Discofrisco and Inferno - The X-Corcist
TTITLE4=Beatlejuice - Prepare To Die
TTITLE5=Stigma 909 - Most Wanted
TTITLE6=Humanoise - Haulin' De Baulin'
TTITLE7=Chosen Few - O Chosen
TTITLE8=Bloody Heavy - Junglistic Gabber
TTITLE9=Ferocious - Everybody Reach For The Top
TTITLE10=Pharcyde Terror - Love You Like Water
TTITLE11=E Rick and Tactic - Hysterical Drumbeats
TTITLE12=Rhythm Quest - Fantasy Blower
TTITLE13=Nasty Django - Hardcore Muthafucka
TTITLE14=Mister DJ - Come In Mister DJ
TTITLE15=Agrroman - The Dark Side Of The Moon
TTITLE16=Beatlejuice - What Is Your Name?
TTITLE17=Liza N' Eliaz and Sand-E - Rock'n Roll Is Still Alive
EXTD=this is the tracklist to Hardcore Forever
EXTT0=
EXTT1=
EXTT2=
EXTT3=
EXTT4=
EXTT5=
EXTT6=
EXTT7=
EXTT8=
EXTT9=
EXTT10=
EXTT11=
EXTT12=
EXTT13=
EXTT14=
EXTT15=
EXTT16=
EXTT17=
PLAYORDER=
